<?xml version="1.0" standalone="no"?>
<!DOCTYPE svg PUBLIC "-//W3C//DTD SVG 20010904//EN"
 "http://www.w3.org/TR/2001/REC-SVG-20010904/DTD/svg10.dtd">
<svg version="1.0" xmlns="http://www.w3.org/2000/svg"
 width="719.000000pt" height="719.000000pt" viewBox="0 0 719.000000 719.000000"
 preserveAspectRatio="xMidYMid meet">
<metadata>
Created by potrace 1.11, written by Peter Selinger 2001-2013
</metadata>
<g transform="translate(0.000000,719.000000) scale(0.100000,-0.100000)"
fill="#000000" stroke="none">
<path d="M0 3595 l0 -3595 3595 0 3595 0 0 3595 0 3595 -3595 0 -3595 0 0
-3595z m5456 2641 c487 -103 834 -530 834 -1026 0 -693 -659 -1193 -1330
-1009 -170 47 -322 138 -456 273 -161 162 -257 346 -294 564 l-12 72 -254 0
-254 0 0 -995 c0 -906 5 -1094 24 -952 15 112 19 133 27 141 5 6 9 26 9 46 0
20 3 40 8 44 7 8 28 98 38 174 4 23 11 45 15 48 5 3 9 25 9 49 0 24 5 47 10
50 6 3 10 24 10 45 0 21 7 45 15 54 9 9 15 33 15 62 0 26 3 44 7 40 12 -11 33
-80 33 -107 0 -14 7 -34 15 -45 8 -10 15 -36 15 -56 0 -20 5 -40 10 -43 6 -3
10 -24 10 -46 0 -21 4 -39 9 -39 5 0 13 -25 16 -55 4 -30 11 -58 16 -61 5 -3
9 -23 9 -44 0 -21 5 -42 10 -45 6 -3 10 -24 10 -46 0 -21 4 -39 9 -39 5 0 13
-25 16 -55 4 -30 11 -58 16 -61 5 -3 6 -16 3 -30 -6 -22 -3 -24 26 -24 28 0
60 18 60 35 0 9 525 525 535 525 2 0 42 38 89 85 48 47 89 85 91 85 11 0 4
-36 -10 -54 -8 -11 -15 -30 -15 -43 0 -13 -4 -23 -10 -23 -5 0 -10 -13 -10
-29 0 -17 -4 -33 -10 -36 -5 -3 -10 -13 -10 -22 0 -9 -6 -24 -13 -32 -7 -9
-21 -41 -31 -71 -10 -30 -23 -59 -27 -64 -5 -6 -9 -20 -9 -33 0 -13 -4 -23
-10 -23 -5 0 -10 -10 -10 -23 0 -13 -7 -32 -15 -43 -8 -10 -15 -29 -15 -41 0
-13 -3 -23 -8 -23 -8 0 -30 -59 -39 -103 -3 -16 -12 -31 -19 -34 -8 -3 -14
-13 -14 -23 0 -11 -4 -22 -10 -25 -5 -3 -10 -15 -10 -26 0 -35 -24 -48 -96
-51 -67 -3 -68 -3 -76 -35 -5 -18 -13 -33 -18 -33 -6 0 -10 -9 -10 -20 0 -11
-4 -28 -9 -38 -23 -46 -41 -95 -41 -112 0 -10 -4 -22 -10 -25 -5 -3 -10 -14
-10 -24 0 -10 -7 -24 -15 -31 -8 -7 -15 -21 -15 -31 0 -19 -3 -27 -34 -86 -9
-17 -16 -41 -16 -52 0 -12 -4 -21 -10 -21 -5 0 -10 -9 -10 -20 0 -13 7 -20 20
-20 11 0 20 -4 20 -10 0 -5 10 -10 23 -10 12 0 31 -6 42 -13 11 -7 40 -19 65
-27 25 -8 69 -24 98 -37 29 -13 60 -23 68 -23 8 0 22 -7 30 -15 9 -8 24 -15
35 -15 10 0 19 -4 19 -9 0 -18 -44 -41 -77 -41 -18 0 -33 -4 -33 -10 0 -5 -15
-10 -32 -10 -18 0 -42 -7 -52 -15 -11 -8 -35 -15 -53 -15 -18 0 -33 -4 -33
-10 0 -5 -15 -10 -34 -10 -19 0 -37 -4 -40 -9 -3 -5 -26 -12 -51 -15 -39 -6
-45 -10 -45 -32 0 -13 11 -42 25 -64 14 -22 25 -46 25 -55 0 -8 4 -15 9 -15 5
0 12 -11 15 -25 4 -14 11 -25 16 -25 6 0 10 -7 10 -15 0 -9 10 -32 23 -53 13
-20 36 -63 51 -94 15 -32 31 -60 37 -63 5 -4 9 -15 9 -26 0 -10 5 -19 10 -19
6 0 10 -9 10 -20 0 -11 4 -20 10 -20 5 0 12 -11 16 -25 3 -14 10 -25 15 -25 5
0 9 -6 9 -14 0 -18 32 -76 43 -76 4 0 7 -7 7 -15 0 -17 18 -52 38 -73 6 -7 12
-20 12 -28 0 -8 5 -14 10 -14 6 0 10 -8 10 -17 0 -10 7 -27 15 -37 41 -54 2
-47 -52 9 -23 25 -45 45 -47 45 -3 0 -18 12 -35 27 -16 16 -57 53 -90 83 -34
30 -90 81 -124 113 -34 31 -65 57 -69 57 -3 0 -36 29 -73 65 -36 36 -67 65
-70 65 -2 0 -16 12 -32 28 -58 55 -103 92 -113 92 -5 0 -10 5 -10 11 0 15 -31
38 -51 39 -9 0 -24 -15 -33 -32 -19 -37 -38 -70 -46 -78 -3 -3 -14 -22 -25
-42 -11 -21 -23 -38 -27 -38 -5 0 -8 -7 -8 -17 0 -9 -11 -31 -25 -49 -14 -18
-25 -37 -25 -43 0 -6 -4 -11 -10 -11 -5 0 -10 -6 -10 -14 0 -8 -6 -21 -13 -28
-7 -7 -20 -28 -28 -46 -7 -17 -17 -32 -21 -32 -5 0 -8 -6 -8 -14 0 -8 -6 -21
-12 -28 -18 -19 -47 -68 -61 -101 -6 -15 -15 -27 -19 -27 -4 0 -8 -5 -8 -11 0
-16 -36 -59 -44 -52 -3 3 -6 101 -6 217 0 116 -3 242 -7 280 l-6 68 -36 -6
c-20 -3 -58 -11 -86 -16 -27 -6 -70 -14 -95 -19 -25 -4 -55 -13 -67 -19 -12
-7 -40 -12 -62 -12 -22 0 -42 -4 -45 -9 -3 -5 -23 -11 -43 -14 -60 -7 -156
-28 -175 -38 -10 -5 -36 -9 -57 -9 -22 0 -43 -4 -46 -10 -3 -5 -22 -10 -41
-10 -19 0 -34 5 -34 10 0 6 7 10 15 10 8 0 15 4 15 10 0 5 11 12 25 16 14 3
25 10 25 14 0 4 16 15 35 24 19 9 35 21 35 26 0 6 5 10 11 10 6 0 33 16 59 35
26 19 50 35 54 35 8 0 161 104 164 112 2 5 9 8 15 8 7 0 23 10 37 23 14 12 39
29 55 37 17 8 36 21 43 27 7 7 18 13 23 13 5 0 9 5 9 10 0 6 -33 10 -79 10
-44 0 -82 4 -85 9 -3 4 -78 10 -166 13 -88 3 -163 8 -166 10 -13 14 13 35 64
51 31 9 63 17 70 17 6 0 12 5 12 10 0 6 15 10 34 10 18 0 39 7 46 15 7 8 25
15 41 15 15 0 31 5 34 10 3 6 14 10 23 10 31 -1 132 35 129 45 -2 6 -13 14
-25 20 -12 5 -22 13 -22 17 0 5 -6 8 -14 8 -18 0 -76 32 -76 43 0 4 -7 7 -15
7 -8 0 -15 4 -15 10 0 5 -11 12 -25 16 -14 3 -25 10 -25 15 0 5 -9 9 -20 9
-11 0 -20 5 -20 10 0 6 -7 10 -15 10 -8 0 -15 4 -15 9 0 5 -11 12 -25 15 -14
4 -25 11 -25 16 0 6 -9 10 -20 10 -11 0 -20 4 -20 9 0 5 -8 12 -17 15 -33 13
-63 31 -63 38 0 5 -9 8 -20 8 -11 0 -20 4 -20 10 0 5 -17 17 -37 27 -21 9 -42
21 -48 26 -5 4 -26 16 -45 26 -40 21 -54 61 -21 61 11 0 23 -4 26 -10 3 -5 30
-10 59 -10 28 0 56 -4 62 -9 5 -5 29 -11 54 -14 92 -9 210 -31 210 -39 0 -4
24 -8 54 -8 29 0 70 -7 89 -15 20 -8 57 -15 82 -15 25 0 45 -4 45 -10 0 -5 5
-10 10 -10 18 0 10 15 -34 64 -25 26 -53 60 -63 73 -10 14 -24 31 -30 38 -7 8
-13 17 -13 20 0 4 -11 16 -25 27 -34 26 -34 68 -1 68 14 0 28 -4 31 -10 3 -5
14 -10 24 -10 10 0 24 -7 31 -15 7 -8 21 -15 31 -15 11 0 19 -4 19 -10 0 -5 9
-10 19 -10 11 0 23 -4 26 -10 3 -5 15 -10 25 -10 10 0 25 -7 34 -15 8 -8 23
-15 33 -15 11 0 24 -5 31 -12 18 -18 15 12 -3 36 -8 11 -15 30 -15 43 0 13 -4
23 -10 23 -5 0 -10 12 -10 26 0 14 -7 32 -15 40 -8 9 -15 24 -15 35 0 17 -8
19 -75 19 l-75 0 0 30 c0 17 -4 30 -10 30 -5 0 -10 14 -10 30 0 18 -6 33 -15
36 -8 4 -15 17 -15 29 0 13 -4 27 -10 30 -5 3 -10 16 -10 29 0 12 -7 31 -15
42 -8 10 -15 27 -15 37 0 9 -4 17 -10 17 -5 0 -10 16 -10 35 0 22 -6 38 -15
41 -8 4 -15 19 -15 34 0 16 -4 32 -10 35 -5 3 -10 15 -10 26 0 11 -7 27 -15
35 -8 9 -15 26 -15 40 0 13 -4 24 -10 24 -5 0 -10 13 -10 29 0 17 -4 33 -10
36 -5 3 -10 17 -10 29 0 13 -7 29 -15 36 -8 7 -15 21 -15 31 0 11 -4 27 -9 37
-23 46 -41 95 -41 112 0 10 -4 22 -10 25 -5 3 -10 17 -10 29 0 13 -7 29 -15
36 -17 15 -20 30 -4 30 10 0 39 -24 39 -33 0 -3 42 -48 93 -99 50 -52 115
-120 142 -152 28 -32 111 -119 185 -195 74 -75 163 -168 198 -205 l62 -68 0
911 0 911 -305 0 -305 0 0 -375 c0 -400 -2 -419 -49 -445 -13 -7 -313 -10
-891 -10 l-872 0 -29 29 -29 29 0 872 0 872 29 29 29 29 872 0 c578 0 878 -3
891 -10 47 -26 49 -45 49 -445 l0 -375 649 0 649 0 12 73 c74 440 425 788 870
862 101 17 272 13 376 -9z m-2822 -2981 c8 -8 21 -15 30 -15 8 0 18 -4 21 -10
3 -5 15 -10 25 -10 10 0 20 -3 22 -7 5 -12 76 -43 98 -43 11 0 20 -7 20 -15 0
-8 9 -15 19 -15 11 0 23 -4 26 -10 3 -5 15 -10 26 -10 10 0 19 -4 19 -10 0 -5
16 -12 35 -16 19 -3 38 -10 41 -15 3 -5 13 -9 24 -9 10 0 20 -6 23 -14 3 -8
16 -16 29 -19 13 -2 -49 -5 -138 -6 l-161 -1 -36 35 c-21 20 -37 41 -37 46 0
6 -30 39 -66 74 -39 36 -64 67 -60 74 10 15 22 14 40 -4z"/>
<path d="M3580 3022 c0 -5 23 -32 50 -61 28 -29 50 -54 50 -56 0 -2 14 -17 30
-33 l30 -30 0 32 c0 17 4 36 9 42 5 5 11 33 13 62 l5 52 -93 0 c-52 0 -94 -4
-94 -8z"/>
<path d="M3970 2991 c0 -22 5 -41 11 -43 5 -2 13 -22 16 -46 3 -23 10 -42 16
-42 10 0 167 155 167 165 0 3 -47 5 -105 5 l-105 0 0 -39z"/>
</g>
</svg>
